# xmcd
#
# Track frame offsets:
#	150
#	19725
#	36150
#	55125
#	73350
#	89850
#	110175
#	129150
#	152700
#	170375
#	187650
#	207975
#	223200
#	241800
#	261750
#	276075
#	299775
#	321900
#
# Disc length: 4538
#
# Revision: 2
# Processed by: cddbd v1.5.1PL0 Copyright (c) Steve Scherf et al.
# Submitted via: EasyCDDAExtractor 4.5.0.2
# Normalized: r0:TDELIM( - ),TSWAP
#
DISCID=1b11b812
DTITLE=Diaforoi - Gold Ballads
DYEAR=1995
DGENRE=Ballad
TTITLE0=CELINE DION - All By Myself
TTITLE1=MICHAEL JACKSON - Will You be there
TTITLE2=BABYFACE - Everytime I Close My Eyes
TTITLE3=EN VOGUE - Don't Let Go
TTITLE4=YOUSSOU N'DOUR and NENEH CHERRY - 7 Seconds
TTITLE5=JOAN OSBORNE - One Of Us
TTITLE6=OASIS - Wonderwall
TTITLE7=AEROSMITH - Hole In My Soul
TTITLE8=BRUCE SPRINGSTEEN - My Hometown
TTITLE9=SCORPIONS - White Dove
TTITLE10=AMANDA MARSHALL - Dark Horse
TTITLE11=BILLY JOEL - Just The Way You Are
TTITLE12=JOURNEY - When You Love A Woman
TTITLE13=KENNY LOGGINS - For The First Time
TTITLE14=CHICAGO - Let's Take A Lifetime
TTITLE15=ZUCCHERO - My Love
TTITLE16=OMEGA VIBES - D.N.A.
TTITLE17=HUMAN NATURE - Wishes
EXTD=
EXTT0=
EXTT1=
EXTT2=
EXTT3=
EXTT4=
EXTT5=
EXTT6=
EXTT7=
EXTT8=
EXTT9=
EXTT10=
EXTT11=
EXTT12=
EXTT13=
EXTT14=
EXTT15=
EXTT16=
EXTT17=
PLAYORDER=
